<?xml version="1.0" encoding="iso-8859-1"?>
<!-- Uploaded to: SVG Repo, www.svgrepo.com, Generator: SVG Repo Mixer Tools -->
<svg fill="#000000" version="1.1" id="Layer_1" xmlns="http://www.w3.org/2000/svg" xmlns:xlink="http://www.w3.org/1999/xlink" 
	 viewBox="0 0 356.744 356.744" xml:space="preserve">
<g>
	<g>
		<g>
			<path d="M285.772,208.376l70.972-63.924h-68.336c1.328-1.46,2.372-3.148,2.976-5.112c1.772-5.76-0.184-12.644-4.98-17.536
				c-2.436-2.48-5.384-4.2-8.644-5.24c-1.192-29.704-47.392-64.932-104.628-64.932c-57.988,0-104.684,36.164-104.684,66.104
				c0,0.64,0.124,1.244,0.168,1.872c-1.936,1.756-3.708,3.852-5.176,6.356c-3.536,6.036-4.872,12.572-3.836,18.488H0l66.652,60.032
				c-0.784,3.492-1.18,7.336-1.18,11.572c0,14.648,20.572,27.22,52.004,34.204l59.568,53.652l1.328,1.2l62.932-56.68
				c27.152-7.232,44.488-18.928,44.488-32.376c0-3.276-0.344-6.256-0.872-9.08C285.268,207.4,285.596,207.844,285.772,208.376z
				 M173.132,55.6c47.944,0,89.792,26.692,98.868,52.204h-0.016c-0.18,11.308-9.14,20.504-26.632,27.336l0.828,2.108
				c15.612-6.096,24.704-14.152,27.26-23.952c0.248,1.492,0.404,2.976,0.404,4.44c0,31.928-63.1,36.7-100.716,36.7
				c-37.616,0-100.716-4.768-100.716-36.7C72.416,89.768,118.888,55.6,173.132,55.6z M66.892,127.988
				c0.576-0.98,1.484-2.228,2.56-3.488c6.04,21.916,42.248,33.908,103.68,33.908c64.864,0,101.624-13.364,104.412-37.672
				c2.252,0.86,4.296,2.132,6.004,3.872c3.784,3.86,5.36,9.18,4.016,13.56c-1.164,3.788-4.288,6.292-9.036,7.248l-3.14,0.632
				l1.944,2.544c2.06,2.692,2.972,6.136,2.504,9.46c-0.436,3.092-2.024,5.792-4.46,7.596c-5.376,3.98-15.712,1.412-19.612-2.364
				l-4.224-4.084l0.852,5.808c1.012,6.888-0.12,11.328-3.668,14.404c-4.124,3.576-10.476,5.272-16.996,4.572
				c-5.972-0.652-12.02-3.296-17.024-7.44c-0.552-0.456-1.08-0.936-1.596-1.436l-2.292-2.212l-0.996,3.024
				c-1.696,5.156-6.504,9.164-11.972,9.968c-7.284,1.116-14.956-5.74-16.124-10.752l-1.248-5.34l-2.48,4.888
				c-3.38,6.648-7.228,10.12-12.472,11.26c-5.956,1.288-12.764-0.068-18.192-3.652c-1.968-1.3-3.796-2.992-5.592-5.168l-0.9-1.084
				l-1.32,0.476c-5.56,2-13.004,1.908-17.276-4.324l-1.388-2.032l-1.704,1.772c-5.156,5.372-14.86,7.028-21.184,3.612
				c-3.044-1.648-4.272-4.516-4.772-6.632c-0.828-3.524-0.204-7.568,1.556-10.06l3.8-5.396l-6.156,2.376
				c-7.792,3.008-13.64,3.396-18.416,1.244c-5.328-2.404-9.2-7.18-10.356-12.78C62.564,139.184,63.728,133.392,66.892,127.988z
				 M183.216,224.356c-2.52-0.032-5.048-0.064-7.584-0.064c-56.908,0-105.052-17.5-106.14-38.372
				c4.456,3.06,9.616,4.664,14.912,4.664c1.568,0,3.144-0.14,4.72-0.42c0.808-0.144,1.58-0.388,2.36-0.612
				c1.28,1.224,2.616,2.396,4.032,3.476c8.024,6.136,17.404,9.348,27,9.348c1.84,0,3.688-0.156,5.532-0.396
				c8.696,10.1,21.968,16.3,36.388,16.3c2.928,0,5.904-0.256,8.892-0.784c10.536-1.864,19.936-6.884,27.06-14.272
				c4.968,1.552,10.044,2.364,15.048,2.364c9.156,0,18.012-2.604,25.54-7.38c3.9,2.26,8.364,3.58,13.068,3.58
				c1.544,0,3.1-0.136,4.672-0.416c11.564-2.068,20.024-11.4,21.552-22.456c0.972,2.052,1.552,4.148,1.552,6.288
				c0,9.148-9.096,17.668-24.028,24.412c-0.024,0.072-0.072,0.148-0.1,0.22c-0.988,0.472-2.204,1.044-3.888,1.832
				c-1.892,0.884-2.236,3.148-2.632,5.776c-0.488,3.236-1.004,5.752-2.768,6.288c-3.344,1.024-5.052-0.304-6.696-1.584
				c-1.3-1.016-3.736-2.904-6.2-0.452c-0.992,0.992-1.028,2.332-1.056,3.416c-0.044,1.584-0.144,2.136-1.192,2.58
				c-1.372,0.58-1.416,0.512-2.216-0.628c-0.764-1.096-2.192-3.152-5.288-2.528c-2.26,0.448-2.896,2.68-3.356,4.312
				c-0.148,0.532-0.404,1.42-0.584,1.628c-1.436,1.328-1.984,1.416-2.14,1.36c-0.068-0.008-0.248-0.128-0.496-0.512
				c-0.192-0.36-0.228-1.692-0.248-2.492c-0.064-2.32-0.136-5.204-2.636-6.116c-0.88-0.316-1.684-0.204-2.608-0.076
				c-7.972,0.836-14.24,1.064-22.916,1.38l-7.564,0.28L183.216,224.356z M74.152,165.416c-2.588,1.7-3.836,4.332-3.888,4.444
				l-1.16,2.492l2.748-0.072c0.124-0.004,3.036-0.1,5.624-1.796c0.464-0.304,0.868-0.64,1.244-0.984
				c2.284,6.636,5.84,12.648,10.48,17.708c-0.196,0.048-0.38,0.124-0.58,0.16c-6.224,1.104-12.492-0.264-17.672-3.876
				c-5.184-3.608-8.648-9.02-9.756-15.236c-0.916-5.108-0.032-10.212,2.276-14.756c2.248,3.08,5.264,5.608,8.856,7.228
				c1.468,0.664,2.952,1.104,4.44,1.376c0.124,0.66,0.276,1.312,0.424,1.96C76.252,164.328,75.18,164.744,74.152,165.416z
				 M77.552,165.728c0.168,0.66,0.4,1.296,0.6,1.948c-0.448,0.484-0.968,0.968-1.604,1.388c-2.212,1.452-4.736,1.52-4.736,1.52
				s1.064-2.288,3.28-3.74C75.92,166.3,76.788,165.952,77.552,165.728z M89.296,169.832c0.968,4.12,3.372,7.4,6.768,9.236
				c6.42,3.484,15.312,2.82,21.864-1.128c0.092,1.312,0.216,2.624,0.456,3.948c1.096,6.052,3.492,11.564,6.82,16.396
				c-9.668,0.668-19.228-2.268-27.308-8.444c-7.96-6.084-13.648-14.696-16.364-24.592c-0.208-0.532-0.34-1.088-0.388-1.656h-0.016
				c-0.092-0.38-0.164-0.764-0.248-1.148c3.008-0.024,5.924-0.596,8.544-1.36C88.692,163.84,88.62,166.944,89.296,169.832z
				 M140.824,188.9c4.364,6.588,11.56,9.896,17.904,12.812c1.284,0.584,2.448,0.88,3.464,0.88c1.348,0,2.42-0.516,3.148-1.54
				c0.708-0.996,0.832-2.192,0.9-3.332c0.16-2.624,0.156-5.244,0.096-7.86c0.012-0.004,0.02-0.004,0.032-0.004
				c1.612-0.352,3.068-0.876,4.392-1.532c0.848,3.948,1.812,7.876,3.056,11.712c0.124,0.388,0.312,0.968,0.812,1.404
				c0.404,0.344,0.896,0.516,1.484,0.516c0.508,0,1.092-0.132,1.736-0.396c2.932-1.2,5.7-3.1,8.72-5.984
				c2.224-2.124,3.932-4.184,5.208-6.256c1.38,0.396,2.804,0.628,4.26,0.648c-0.492,0.904-1.028,1.788-1.632,2.644
				c-5.308,7.544-13.38,12.568-22.724,14.144c-18.228,3.112-35.728-8.092-40.192-25.156c1.9,0.16,3.88,0.024,5.896-0.376
				C138.32,184.244,139.44,186.812,140.824,188.9z M139.036,180.832c0.172-0.048,0.34-0.068,0.508-0.12
				c1.772,1.996,3.608,3.612,5.58,4.916c4.728,3.124,10.372,4.792,15.848,4.792c1.228,0.004,2.448-0.112,3.652-0.284
				c0.052,2.488,0.052,4.984-0.096,7.48c-0.056,0.932-0.144,1.824-0.592,2.452c-0.956,1.34-2.972,0.784-4.48,0.096
				c-6.14-2.824-13.096-6.02-17.192-12.2C140.98,186.028,139.92,183.66,139.036,180.832z M172.324,187.436
				c3.2-1.988,5.516-4.724,7.232-7.4c2.192,3.528,6.028,6.984,10.552,8.752c-1.176,1.828-2.74,3.66-4.728,5.56
				c-2.86,2.736-5.46,4.528-8.18,5.64c-0.688,0.28-1.228,0.34-1.436,0.164c-0.136-0.116-0.232-0.416-0.304-0.632
				C174.168,195.56,173.18,191.508,172.324,187.436z M165.62,210.1c2.16,0,4.348-0.18,6.548-0.552
				c10.104-1.712,18.84-7.152,24.596-15.32c1.032-1.464,1.872-3.008,2.636-4.58c2.496-0.504,4.836-1.492,6.896-2.888
				c-1.304,3.376-3.068,6.628-5.34,9.66c-6.76,9.016-16.82,15.1-28.332,17.136c-23.684,4.196-46.264-10.328-50.252-32.376
				c-0.208-1.148-0.328-2.292-0.416-3.432c1.86,1.564,4.052,2.668,6.448,3.296C132.22,198.128,147.98,210.1,165.62,210.1z
				 M212.34,180.1c0.04-0.072,0.088-0.14,0.128-0.212c5.452,4.412,11.984,7.228,18.48,8.008c1.652,3.028,3.82,5.688,6.42,7.832
				c-9.952,5.732-22.232,7.328-34.048,4.136c0.288-0.36,0.604-0.696,0.88-1.064C208.468,193.108,211.168,186.728,212.34,180.1z
				 M258.224,198.568c-6.22,1.104-12.492-0.268-17.672-3.876c-2.548-1.772-4.588-4.032-6.212-6.568
				c6.52,0.056,12.72-1.976,17.004-5.692c0.492-0.428,0.924-0.872,1.336-1.328c-0.168,1.032-0.248,2.316-0.004,3.68
				c0.544,3.048,2.48,5.232,2.56,5.324l1.836,2.044l1.012-2.556c0.044-0.116,1.1-2.832,0.556-5.88
				c-0.544-3.048-2.48-5.232-2.56-5.324l-0.916-1.024c0.364-0.784,0.636-1.58,0.864-2.384l1.22,1.208
				c0.088,0.088,2.172,2.124,5.188,2.824c0.752,0.172,1.552,0.26,2.376,0.26c1.924,0,3.364-0.472,3.524-0.524l2.604-0.884
				l-1.952-1.936c-0.088-0.088-2.172-2.124-5.188-2.824c-0.752-0.172-1.552-0.26-2.376-0.26c-1.924,0-3.368,0.472-3.524,0.524
				l-1.588,0.54c0.368-1.732,0.48-3.476,0.44-5.132c5.7,2.972,14.296,4.184,20.104,0.608c0.172,0.576,0.368,1.14,0.476,1.748
				C279.624,183.968,271.056,196.272,258.224,198.568z M254.812,179.532c0,0,1.684,1.88,2.152,4.488
				c0.468,2.608-0.464,4.952-0.464,4.952s-1.684-1.88-2.152-4.488C253.884,181.876,254.812,179.532,254.812,179.532z
				 M258.44,174.988c0,0,1.28-0.436,2.976-0.436c0.624,0,1.3,0.06,1.992,0.22c2.58,0.596,4.372,2.372,4.372,2.372
				s-1.28,0.436-2.976,0.436c-0.624,0-1.3-0.06-1.992-0.22C260.232,176.764,258.44,174.988,258.44,174.988z M60.704,148.42
				c0.292,0.76,0.616,1.5,0.988,2.216c-3.236,5.46-4.416,11.812-3.288,18.12c0.364,2.04,0.98,3.988,1.78,5.844
				c-9.976-8.328-19.744-17-29.096-26.18H60.704z M67.896,200.264l-57.56-51.844h16.5c12.348,12.312,25.468,23.68,38.816,34.528
				c-0.104,0.744-0.18,1.492-0.18,2.248c0,2.704,0.64,5.34,1.804,7.896c0.152,1.948,0.552,3.832,1.18,5.656
				C68.256,199.244,68.072,199.752,67.896,200.264z M178.368,299.764L125.112,251.8c8.872,1.632,18.46,2.844,28.6,3.56
				c7.24,6.724,14.304,13.664,21.008,20.976l0.884,0.964l1.032-0.804c8.956-6.964,17.552-14.168,26.068-21.496
				c-0.024-0.012-0.048-0.032-0.072-0.048c10.956-0.968,21.228-2.516,30.552-4.556L178.368,299.764z M158.132,255.64
				c5.688,0.316,11.528,0.484,17.5,0.484c7.66,0,15.116-0.272,22.296-0.788c-7.204,6.156-14.472,12.236-22.004,18.12
				C170.208,267.276,164.232,261.384,158.132,255.64z M175.632,252.156c-57.564,0-106.192-16.532-106.192-36.1
				c0-4.552,0.52-8.56,1.476-12.152c4.352,6.772,12.428,12.516,24.252,17.132l0.828-2.108c-12.384-4.836-20.4-10.884-24.136-18.008
				c0.088-0.232,0.176-0.464,0.268-0.692c15.284,16.524,55.32,28.032,103.504,28.032c2.612,0,5.172-0.068,7.732-0.132l0.004,0.132
				l7.552-0.284c8.752-0.316,15.076-0.548,23.176-1.4l0.484-0.06c0.06-0.012,0.124-0.02,0.192-0.028
				c0.148,0.568,0.176,1.708,0.196,2.436c0.044,1.616,0.084,3.288,0.86,4.504c1.08,1.704,2.408,2.208,3.332,2.328
				c0.192,0.028,0.376,0.04,0.564,0.04c1.908,0,3.548-1.268,4.784-2.412c0.988-0.912,1.376-2.268,1.716-3.468
				c0.148-0.536,0.404-1.428,0.304-1.504c0.528-0.096,0.56-0.108,1.264,0.908c0.932,1.348,2.684,3.86,7.012,2.016
				c3.496-1.472,3.576-4.504,3.612-6.132c0.008-0.164,0.012-0.372,0.024-0.556c0.252,0.176,0.572,0.42,0.828,0.62
				c1.852,1.448,4.948,3.872,10.288,2.252c4.296-1.308,5.016-6.04,5.54-9.492c0.156-1.036,0.396-2.6,0.392-2.776
				c1.672-0.784,2.896-1.36,3.892-1.832c8.272-3.76,14.884-8.1,19.424-12.868c1.968,4.34,3.02,9.432,3.02,15.504
				C281.824,235.624,233.192,252.156,175.632,252.156z M281.592,197.192c2.728-3.796,4.2-7.816,4.2-12
				c0-4.832-1.972-9.444-5.572-13.744c-0.04-0.272-0.056-0.54-0.104-0.808c-0.196-1.096-0.484-2.152-0.808-3.188
				c2.4-2.352,4-5.396,4.488-8.844c0.484-3.424-0.144-6.952-1.744-10.02c0.132-0.044,0.232-0.12,0.36-0.168H317.3l-14.144,12.66
				l1.892,2.108l16.328-14.616l-0.136-0.152h25.168l-62.004,55.844C283.736,201.696,282.752,199.38,281.592,197.192z"/>
			
				<rect x="293.469" y="163.161" transform="matrix(-0.6674 -0.7447 0.7447 -0.6674 365.0836 503.0735)" width="2.832" height="13.696"/>
			<path d="M179.556,194.944c0.164,0,0.332-0.02,0.496-0.068c0.408-0.12,0.772-0.38,1.08-0.756c1.04-1.28,1.004-3.276-0.092-4.856
				c-0.896-1.3-2.28-2.156-3.496-2.912l-0.308,5.684c0.044,0.516,0.108,1.224,0.488,1.844
				C178.076,194.46,178.776,194.944,179.556,194.944z M179.62,190.228c0.564,0.816,0.804,2.048,0.168,2.828
				c-0.1,0.12-0.18,0.18-0.212,0.188c-0.116,0.044-0.28-0.076-0.384-0.244c-0.168-0.276-0.208-0.716-0.24-1.104l-0.228-2.648
				C179.064,189.544,179.372,189.868,179.62,190.228z"/>
			<path d="M159.832,198.3c0.148,0.012,0.296,0,0.436-0.028c0.664-0.132,1.18-0.668,1.384-1.224c0.22-0.6,0.152-1.216,0.1-1.668
				l-1.232-4.84c-0.908,0.852-1.94,1.82-2.484,3.092c-0.664,1.544-0.356,3.268,0.748,4.196
				C159.112,198.104,159.464,198.264,159.832,198.3z M159.412,194.216c0.148-0.352,0.356-0.68,0.6-0.996l0.256,2.32
				c0.036,0.344,0.076,0.728-0.02,0.992c-0.06,0.16-0.18,0.292-0.284,0.272c-0.028,0-0.108-0.036-0.216-0.124
				C159.072,196.116,159.068,195.016,159.412,194.216z"/>
			<path d="M109.34,102.272c0.66,0,1.332-0.196,1.916-0.596l10.684-7.36c0.748-0.512,1.248-1.284,1.416-2.176
				c0.164-0.896-0.032-1.796-0.544-2.536c-1.064-1.548-3.18-1.932-4.716-0.876l-10.692,7.36c-0.744,0.512-1.244,1.284-1.408,2.176
				c-0.164,0.896,0.028,1.792,0.54,2.536C107.192,101.756,108.256,102.272,109.34,102.272z M108.692,97.956l10.688-7.36
				c0.196-0.132,0.416-0.196,0.636-0.196c0.356,0,0.712,0.172,0.928,0.484c0.168,0.248,0.232,0.548,0.176,0.84
				c-0.056,0.296-0.224,0.556-0.468,0.724l-10.684,7.36c-0.248,0.168-0.552,0.224-0.844,0.176c-0.296-0.056-0.556-0.224-0.724-0.464
				v-0.004c-0.168-0.244-0.232-0.54-0.176-0.836C108.28,98.384,108.448,98.124,108.692,97.956z"/>
			<path d="M205.976,100.572c-0.78,0.448-1.344,1.18-1.58,2.06c-0.24,0.876-0.116,1.788,0.336,2.572l6.488,11.24
				c0.624,1.084,1.768,1.692,2.94,1.692c0.576,0,1.156-0.144,1.692-0.448v-0.004c0.78-0.448,1.344-1.184,1.58-2.06
				c0.236-0.876,0.112-1.788-0.34-2.572l-6.488-11.24c-0.448-0.78-1.184-1.344-2.06-1.58C207.676,100,206.76,100.12,205.976,100.572
				z M215.132,114.18c0.148,0.256,0.188,0.56,0.108,0.852c-0.08,0.288-0.26,0.532-0.52,0.68c-0.528,0.324-1.232,0.132-1.54-0.408
				l-6.488-11.24c-0.148-0.256-0.188-0.56-0.104-0.852c0.08-0.288,0.26-0.532,0.52-0.684c0.176-0.1,0.372-0.148,0.564-0.148
				c0.388,0,0.76,0.2,0.972,0.56L215.132,114.18z"/>
			<path d="M145.792,106.544c0.064,0.004,0.124,0.004,0.184,0.004c0.844,0,1.64-0.304,2.264-0.868l9.636-8.692
				c1.388-1.248,1.5-3.4,0.252-4.784c-1.248-1.388-3.4-1.496-4.784-0.252l-9.64,8.692c-0.672,0.6-1.068,1.432-1.112,2.34
				c-0.048,0.912,0.256,1.78,0.864,2.448C144.052,106.1,144.884,106.496,145.792,106.544z M145.216,102.328l9.64-8.692
				c0.216-0.192,0.484-0.288,0.752-0.288c0.308,0,0.612,0.124,0.836,0.372c0.416,0.46,0.376,1.172-0.084,1.584l-9.636,8.692
				c-0.224,0.196-0.504,0.336-0.812,0.28c-0.3-0.016-0.58-0.144-0.776-0.364c-0.2-0.224-0.3-0.512-0.28-0.812
				C144.868,102.8,145,102.524,145.216,102.328z"/>
			<path d="M151.796,73.228l11.24,6.488c0.52,0.3,1.096,0.456,1.684,0.456c0.296,0,0.592-0.04,0.888-0.116
				c0.88-0.24,1.608-0.796,2.064-1.584c0.448-0.78,0.572-1.696,0.336-2.572c-0.236-0.876-0.796-1.608-1.58-2.06l-11.24-6.488
				c-0.78-0.452-1.696-0.568-2.572-0.34c-0.88,0.24-1.608,0.796-2.06,1.584c-0.452,0.78-0.576,1.696-0.34,2.572
				C150.452,72.044,151.012,72.776,151.796,73.228z M152.52,69.732c0.148-0.256,0.392-0.444,0.68-0.524
				c0.096-0.028,0.2-0.04,0.296-0.04c0.192,0,0.384,0.052,0.556,0.148l11.24,6.488c0.256,0.148,0.44,0.392,0.52,0.684
				c0.08,0.292,0.04,0.592-0.108,0.852H165.7c-0.148,0.256-0.392,0.444-0.68,0.524c-0.288,0.08-0.592,0.04-0.852-0.108l-11.24-6.488
				C152.392,70.952,152.208,70.264,152.52,69.732z"/>
			<path d="M227.084,100.336c0.476,0.232,0.984,0.352,1.496,0.352c0.368,0,0.736-0.064,1.088-0.184l12.284-4.18
				c0.856-0.292,1.548-0.9,1.948-1.716c0.4-0.816,0.46-1.736,0.168-2.588s-0.9-1.548-1.716-1.944
				c-0.808-0.404-1.74-0.46-2.584-0.172l-12.288,4.18c-0.856,0.292-1.544,0.904-1.944,1.716c-0.4,0.816-0.46,1.74-0.168,2.584
				C225.66,99.244,226.268,99.932,227.084,100.336z M227.572,96.8c0.136-0.272,0.364-0.476,0.64-0.572l12.284-4.18
				c0.116-0.04,0.24-0.06,0.36-0.06c0.172,0,0.34,0.04,0.5,0.116c0.268,0.132,0.472,0.36,0.568,0.64v0.004
				c0.096,0.28,0.08,0.584-0.056,0.856c-0.136,0.272-0.364,0.472-0.64,0.568l-12.288,4.18c-0.284,0.1-0.584,0.084-0.856-0.056
				c-0.268-0.132-0.472-0.364-0.568-0.648C227.42,97.372,227.44,97.072,227.572,96.8z"/>
			<path d="M174.084,125.936c0.472,0.236,0.984,0.352,1.496,0.352c0.368,0,0.736-0.06,1.088-0.18l12.288-4.18
				c1.764-0.604,2.716-2.536,2.116-4.304v-0.004c-0.608-1.768-2.544-2.712-4.308-2.112l-12.276,4.18
				c-0.86,0.288-1.552,0.9-1.952,1.716c-0.4,0.816-0.46,1.736-0.168,2.584C172.66,124.844,173.268,125.536,174.084,125.936z
				 M174.572,122.404c0.132-0.268,0.364-0.472,0.648-0.568l12.28-4.18c0.12-0.044,0.244-0.064,0.364-0.064
				c0.464,0,0.904,0.292,1.064,0.756c0.2,0.588-0.116,1.232-0.7,1.428l-12.284,4.18c-0.28,0.092-0.584,0.08-0.86-0.06
				c-0.268-0.132-0.472-0.36-0.568-0.644C174.42,122.976,174.44,122.676,174.572,122.404z"/>
			<path d="M193.964,88.38c0.364,0,0.732-0.06,1.088-0.184l12.284-4.18c1.768-0.6,2.724-2.532,2.12-4.3
				c-0.288-0.856-0.9-1.548-1.716-1.948c-0.812-0.404-1.736-0.46-2.584-0.172l-12.288,4.18c-1.764,0.604-2.716,2.536-2.116,4.308
				C191.236,87.492,192.556,88.38,193.964,88.38z M193.6,83.92l12.284-4.18c0.116-0.04,0.24-0.06,0.36-0.06
				c0.172,0,0.34,0.04,0.5,0.116c0.268,0.132,0.472,0.36,0.568,0.64c0.096,0.284,0.076,0.588-0.06,0.86
				c-0.136,0.272-0.36,0.472-0.64,0.568l-12.288,4.18c-0.284,0.1-0.584,0.084-0.852-0.056c-0.272-0.136-0.476-0.364-0.572-0.64
				C192.7,84.76,193.016,84.12,193.6,83.92z"/>
			<path d="M129.056,127.376l12.888,1.516c0.132,0.016,0.268,0.024,0.404,0.024c0.756,0,1.488-0.248,2.092-0.732
				c0.712-0.56,1.16-1.364,1.264-2.256c0.108-0.9-0.14-1.784-0.704-2.496c-0.564-0.716-1.368-1.164-2.264-1.268l-12.888-1.52
				c-1.816-0.208-3.548,1.112-3.76,2.964c-0.108,0.9,0.14,1.784,0.704,2.5C127.356,126.824,128.16,127.268,129.056,127.376z
				 M129.452,122.884c0.048,0,0.088,0.004,0.132,0.008l12.888,1.52c0.296,0.036,0.564,0.188,0.752,0.42s0.268,0.528,0.236,0.82
				v0.004c-0.076,0.616-0.692,1.024-1.248,0.984l-12.888-1.516c-0.296-0.036-0.564-0.184-0.752-0.42
				c-0.188-0.236-0.268-0.532-0.236-0.828C128.404,123.304,128.892,122.884,129.452,122.884z"/>
			<path d="M101.096,223.184c5.504,1.816,11.408,3.396,17.544,4.692l0.468-2.22c-6.06-1.276-11.88-2.836-17.3-4.628L101.096,223.184
				z"/>
			<path d="M126.272,229.364c4.868,0.852,9.888,1.604,15.352,2.296l0.28-2.248c-5.424-0.688-10.412-1.432-15.244-2.28
				L126.272,229.364z"/>
			<path d="M226.36,140.592l0.376,2.236c4.76-0.792,9.376-1.888,13.708-3.248l-0.68-2.164
				C235.532,138.748,231.02,139.812,226.36,140.592z"/>
		</g>
	</g>
</g>
</svg>